<mxfile host="drawio-plugin" agent="Mozilla/5.0 (Macintosh; Intel Mac OS X 10_15_7) AppleWebKit/537.36 (KHTML, like Gecko) Chrome/122.0.0.0 Safari/537.36" modified="2024-10-11T08:41:53.297Z" version="22.1.22" etag="rpeo7F77qLDqCCVYjcvB" type="embed">
  <diagram name="Page-1" id="5UgA0u9QQuKmWgjHC9XV">
    <mxGraphModel dx="788" dy="780" grid="1" gridSize="10" guides="1" tooltips="1" connect="1" arrows="1" fold="1" page="1" pageScale="1" pageWidth="827" pageHeight="1169" background="#FFFFFF" math="0" shadow="0">
      <root>
        <mxCell id="0" />
        <mxCell id="1" parent="0" />
        <mxCell id="NpJzlHnRSFM5wKyrmZmd-1" value="" style="rounded=1;whiteSpace=wrap;html=1;strokeWidth=2;strokeColor=#3399FF;fillColor=none;fontColor=default;" parent="1" vertex="1">
          <mxGeometry x="3900" y="270" width="108" height="130" as="geometry" />
        </mxCell>
        <mxCell id="NpJzlHnRSFM5wKyrmZmd-2" value="3" style="shape=connector;rounded=0;orthogonalLoop=1;jettySize=auto;html=1;strokeColor=#3399FF;align=center;verticalAlign=bottom;fontFamily=Helvetica;fontSize=12;fontColor=default;labelBackgroundColor=default;endArrow=classic;" parent="1" source="NpJzlHnRSFM5wKyrmZmd-4" target="NpJzlHnRSFM5wKyrmZmd-65" edge="1">
          <mxGeometry relative="1" as="geometry" />
        </mxCell>
        <mxCell id="NpJzlHnRSFM5wKyrmZmd-3" value="4" style="shape=connector;rounded=0;orthogonalLoop=1;jettySize=auto;html=1;strokeColor=#3399FF;align=center;verticalAlign=bottom;fontFamily=Helvetica;fontSize=12;fontColor=default;labelBackgroundColor=default;endArrow=classic;entryX=0.5;entryY=0;entryDx=0;entryDy=0;exitX=0.75;exitY=1;exitDx=0;exitDy=0;" parent="1" source="NpJzlHnRSFM5wKyrmZmd-4" target="NpJzlHnRSFM5wKyrmZmd-1" edge="1">
          <mxGeometry relative="1" as="geometry" />
        </mxCell>
        <mxCell id="NpJzlHnRSFM5wKyrmZmd-4" value="" style="rounded=1;whiteSpace=wrap;html=1;strokeWidth=2;strokeColor=#3399FF;fillColor=none;fontColor=default;dashed=1;" parent="1" vertex="1">
          <mxGeometry x="3808" y="80" width="100" height="80" as="geometry" />
        </mxCell>
        <mxCell id="NpJzlHnRSFM5wKyrmZmd-5" value="" style="rounded=1;whiteSpace=wrap;html=1;strokeWidth=2;strokeColor=#3399FF;fillColor=none;fontColor=default;" parent="1" vertex="1">
          <mxGeometry x="180" y="70" width="80" height="80" as="geometry" />
        </mxCell>
        <mxCell id="NpJzlHnRSFM5wKyrmZmd-6" value="Client" style="verticalLabelPosition=bottom;html=1;verticalAlign=top;align=center;strokeColor=none;fillColor=#00BEF2;shape=mxgraph.azure.mobile;pointerEvents=1;fontColor=default;" parent="1" vertex="1">
          <mxGeometry x="202.5" y="80" width="35" height="50" as="geometry" />
        </mxCell>
        <mxCell id="NpJzlHnRSFM5wKyrmZmd-7" value="" style="endArrow=none;html=1;rounded=0;entryX=0.5;entryY=1;entryDx=0;entryDy=0;strokeColor=#3399FF;strokeWidth=2;fontColor=default;" parent="1" target="NpJzlHnRSFM5wKyrmZmd-5" edge="1">
          <mxGeometry width="50" height="50" relative="1" as="geometry">
            <mxPoint x="220" y="470" as="sourcePoint" />
            <mxPoint x="400" y="240" as="targetPoint" />
          </mxGeometry>
        </mxCell>
        <mxCell id="NpJzlHnRSFM5wKyrmZmd-8" value="" style="rounded=1;whiteSpace=wrap;html=1;strokeWidth=2;strokeColor=#3399FF;fillColor=none;fontColor=default;" parent="1" vertex="1">
          <mxGeometry x="510" y="190" width="90" height="90" as="geometry" />
        </mxCell>
        <mxCell id="NpJzlHnRSFM5wKyrmZmd-9" value="tiny url server" style="sketch=0;aspect=fixed;pointerEvents=1;shadow=0;dashed=0;html=1;strokeColor=#3399FF;labelPosition=center;verticalLabelPosition=bottom;verticalAlign=top;align=center;fillColor=#3ABA3A;shape=mxgraph.mscae.enterprise.server_generic;fontColor=default;" parent="1" vertex="1">
          <mxGeometry x="543" y="200" width="24" height="50" as="geometry" />
        </mxCell>
        <mxCell id="NpJzlHnRSFM5wKyrmZmd-10" value="visit short URL" style="endArrow=classic;html=1;rounded=0;entryX=-0.037;entryY=0.319;entryDx=0;entryDy=0;entryPerimeter=0;strokeColor=#3399FF;verticalAlign=bottom;labelBackgroundColor=none;fontColor=default;" parent="1" target="NpJzlHnRSFM5wKyrmZmd-8" edge="1">
          <mxGeometry width="50" height="50" relative="1" as="geometry">
            <mxPoint x="220" y="190" as="sourcePoint" />
            <mxPoint x="400" y="240" as="targetPoint" />
          </mxGeometry>
        </mxCell>
        <mxCell id="NpJzlHnRSFM5wKyrmZmd-11" value="status code: 301&lt;div&gt;location: long URL&lt;/div&gt;" style="endArrow=classic;html=1;rounded=0;strokeColor=#3399FF;exitX=0;exitY=0.75;exitDx=0;exitDy=0;labelBackgroundColor=none;fontColor=default;" parent="1" source="NpJzlHnRSFM5wKyrmZmd-8" edge="1">
          <mxGeometry width="50" height="50" relative="1" as="geometry">
            <mxPoint x="230" y="200" as="sourcePoint" />
            <mxPoint x="220" y="300" as="targetPoint" />
          </mxGeometry>
        </mxCell>
        <mxCell id="NpJzlHnRSFM5wKyrmZmd-12" value="" style="rounded=1;whiteSpace=wrap;html=1;strokeWidth=2;strokeColor=#3399FF;fillColor=none;fontColor=default;" parent="1" vertex="1">
          <mxGeometry x="510" y="350" width="90" height="90" as="geometry" />
        </mxCell>
        <mxCell id="NpJzlHnRSFM5wKyrmZmd-13" value="Amazon server" style="sketch=0;aspect=fixed;pointerEvents=1;shadow=0;dashed=0;html=1;strokeColor=#3399FF;labelPosition=center;verticalLabelPosition=bottom;verticalAlign=top;align=center;fillColor=#3ABA3A;shape=mxgraph.mscae.enterprise.server_generic;fontColor=default;" parent="1" vertex="1">
          <mxGeometry x="543" y="360" width="24" height="50" as="geometry" />
        </mxCell>
        <mxCell id="NpJzlHnRSFM5wKyrmZmd-14" value="visit long URL" style="endArrow=classic;html=1;rounded=0;entryX=0;entryY=0.5;entryDx=0;entryDy=0;strokeColor=#3399FF;verticalAlign=bottom;labelBackgroundColor=none;fontColor=default;" parent="1" target="NpJzlHnRSFM5wKyrmZmd-12" edge="1">
          <mxGeometry width="50" height="50" relative="1" as="geometry">
            <mxPoint x="220" y="310" as="sourcePoint" />
            <mxPoint x="517" y="229" as="targetPoint" />
          </mxGeometry>
        </mxCell>
        <mxCell id="NpJzlHnRSFM5wKyrmZmd-15" value="longURL" style="rounded=1;whiteSpace=wrap;html=1;strokeWidth=2;strokeColor=#3399FF;fillColor=none;fontColor=default;" parent="1" vertex="1">
          <mxGeometry x="730" y="80" width="80" height="70" as="geometry" />
        </mxCell>
        <mxCell id="NpJzlHnRSFM5wKyrmZmd-16" value="fX" style="rounded=1;whiteSpace=wrap;html=1;strokeWidth=2;strokeColor=#3399FF;fillColor=none;fontColor=default;fontFamily=Helvetica;fontSize=32;" parent="1" vertex="1">
          <mxGeometry x="990" y="80" width="80" height="70" as="geometry" />
        </mxCell>
        <mxCell id="NpJzlHnRSFM5wKyrmZmd-17" value="hash" style="text;html=1;align=center;verticalAlign=middle;whiteSpace=wrap;rounded=0;fontColor=default;" parent="1" vertex="1">
          <mxGeometry x="1000" y="150" width="60" height="30" as="geometry" />
        </mxCell>
        <mxCell id="NpJzlHnRSFM5wKyrmZmd-18" value="wyk7ioy" style="rounded=1;whiteSpace=wrap;html=1;strokeWidth=2;strokeColor=#3399FF;fillColor=none;fontColor=default;" parent="1" vertex="1">
          <mxGeometry x="990" y="250" width="80" height="70" as="geometry" />
        </mxCell>
        <mxCell id="NpJzlHnRSFM5wKyrmZmd-19" value="" style="endArrow=classic;html=1;rounded=0;entryX=0.5;entryY=0;entryDx=0;entryDy=0;exitX=0.5;exitY=1;exitDx=0;exitDy=0;labelBackgroundColor=none;strokeColor=#3399FF;fontColor=default;" parent="1" source="NpJzlHnRSFM5wKyrmZmd-17" target="NpJzlHnRSFM5wKyrmZmd-18" edge="1">
          <mxGeometry width="50" height="50" relative="1" as="geometry">
            <mxPoint x="820" y="240" as="sourcePoint" />
            <mxPoint x="870" y="190" as="targetPoint" />
          </mxGeometry>
        </mxCell>
        <mxCell id="NpJzlHnRSFM5wKyrmZmd-20" value="" style="endArrow=classic;html=1;rounded=0;entryX=0;entryY=0.5;entryDx=0;entryDy=0;exitX=1;exitY=0.5;exitDx=0;exitDy=0;labelBackgroundColor=none;strokeColor=#3399FF;fontColor=default;" parent="1" source="NpJzlHnRSFM5wKyrmZmd-15" target="NpJzlHnRSFM5wKyrmZmd-16" edge="1">
          <mxGeometry width="50" height="50" relative="1" as="geometry">
            <mxPoint x="1040" y="190" as="sourcePoint" />
            <mxPoint x="1040" y="260" as="targetPoint" />
          </mxGeometry>
        </mxCell>
        <mxCell id="NpJzlHnRSFM5wKyrmZmd-21" value="&lt;font style=&quot;font-size: 16px;&quot;&gt;start&lt;/font&gt;" style="ellipse;whiteSpace=wrap;html=1;aspect=fixed;fillColor=none;strokeColor=#009900;strokeWidth=2;fontSize=16;fontColor=default;" parent="1" vertex="1">
          <mxGeometry x="1270" y="80" width="80" height="80" as="geometry" />
        </mxCell>
        <mxCell id="NpJzlHnRSFM5wKyrmZmd-22" value="input: longURL" style="rounded=1;whiteSpace=wrap;html=1;strokeWidth=2;strokeColor=#3399FF;fillColor=none;fontColor=default;" parent="1" vertex="1">
          <mxGeometry x="1450" y="85" width="120" height="70" as="geometry" />
        </mxCell>
        <mxCell id="NpJzlHnRSFM5wKyrmZmd-23" value="" style="endArrow=classic;html=1;rounded=0;labelBackgroundColor=none;strokeColor=#3399FF;exitX=1;exitY=0.5;exitDx=0;exitDy=0;fontColor=default;" parent="1" source="NpJzlHnRSFM5wKyrmZmd-21" target="NpJzlHnRSFM5wKyrmZmd-22" edge="1">
          <mxGeometry width="50" height="50" relative="1" as="geometry">
            <mxPoint x="1390" y="280" as="sourcePoint" />
            <mxPoint x="1570" y="280" as="targetPoint" />
          </mxGeometry>
        </mxCell>
        <mxCell id="NpJzlHnRSFM5wKyrmZmd-24" value="hash function" style="rounded=1;whiteSpace=wrap;html=1;strokeWidth=2;strokeColor=#3399FF;fillColor=none;fontColor=default;" parent="1" vertex="1">
          <mxGeometry x="1654" y="85" width="120" height="70" as="geometry" />
        </mxCell>
        <mxCell id="NpJzlHnRSFM5wKyrmZmd-25" value="" style="endArrow=classic;html=1;rounded=0;labelBackgroundColor=none;strokeColor=#3399FF;exitX=1;exitY=0.5;exitDx=0;exitDy=0;entryX=0;entryY=0.5;entryDx=0;entryDy=0;fontColor=default;" parent="1" source="NpJzlHnRSFM5wKyrmZmd-22" target="NpJzlHnRSFM5wKyrmZmd-24" edge="1">
          <mxGeometry width="50" height="50" relative="1" as="geometry">
            <mxPoint x="1360" y="130" as="sourcePoint" />
            <mxPoint x="1460" y="130" as="targetPoint" />
          </mxGeometry>
        </mxCell>
        <mxCell id="NpJzlHnRSFM5wKyrmZmd-26" value="shortURL" style="rounded=1;whiteSpace=wrap;html=1;strokeWidth=2;strokeColor=#3399FF;fillColor=none;fontColor=default;" parent="1" vertex="1">
          <mxGeometry x="1906" y="85" width="120" height="70" as="geometry" />
        </mxCell>
        <mxCell id="NpJzlHnRSFM5wKyrmZmd-27" value="" style="endArrow=classic;html=1;rounded=0;labelBackgroundColor=none;strokeColor=#3399FF;exitX=1;exitY=0.5;exitDx=0;exitDy=0;entryX=0;entryY=0.5;entryDx=0;entryDy=0;fontColor=default;" parent="1" source="NpJzlHnRSFM5wKyrmZmd-24" target="NpJzlHnRSFM5wKyrmZmd-26" edge="1">
          <mxGeometry width="50" height="50" relative="1" as="geometry">
            <mxPoint x="1820" y="120" as="sourcePoint" />
            <mxPoint x="1930" y="240" as="targetPoint" />
          </mxGeometry>
        </mxCell>
        <mxCell id="NpJzlHnRSFM5wKyrmZmd-28" value="" style="edgeStyle=orthogonalEdgeStyle;rounded=0;orthogonalLoop=1;jettySize=auto;html=1;" parent="1" source="NpJzlHnRSFM5wKyrmZmd-29" target="NpJzlHnRSFM5wKyrmZmd-38" edge="1">
          <mxGeometry relative="1" as="geometry" />
        </mxCell>
        <mxCell id="NpJzlHnRSFM5wKyrmZmd-29" value="exist in DB?" style="rhombus;whiteSpace=wrap;html=1;labelBackgroundColor=none;fillColor=none;strokeColor=#3399FF;fontColor=default;" parent="1" vertex="1">
          <mxGeometry x="1896" y="230" width="140" height="100" as="geometry" />
        </mxCell>
        <mxCell id="NpJzlHnRSFM5wKyrmZmd-30" value="" style="endArrow=classic;html=1;rounded=0;labelBackgroundColor=none;strokeColor=#3399FF;exitX=0.5;exitY=1;exitDx=0;exitDy=0;entryX=0.5;entryY=0;entryDx=0;entryDy=0;fontColor=default;" parent="1" source="NpJzlHnRSFM5wKyrmZmd-26" target="NpJzlHnRSFM5wKyrmZmd-29" edge="1">
          <mxGeometry width="50" height="50" relative="1" as="geometry">
            <mxPoint x="1830" y="130" as="sourcePoint" />
            <mxPoint x="1916" y="130" as="targetPoint" />
          </mxGeometry>
        </mxCell>
        <mxCell id="NpJzlHnRSFM5wKyrmZmd-31" value="" style="endArrow=classic;html=1;rounded=0;labelBackgroundColor=none;strokeColor=#3399FF;exitX=0;exitY=0.5;exitDx=0;exitDy=0;fontColor=default;entryX=1;entryY=0.5;entryDx=0;entryDy=0;" parent="1" source="NpJzlHnRSFM5wKyrmZmd-29" target="NpJzlHnRSFM5wKyrmZmd-33" edge="1">
          <mxGeometry width="50" height="50" relative="1" as="geometry">
            <mxPoint x="1976" y="165" as="sourcePoint" />
            <mxPoint x="1820" y="280" as="targetPoint" />
          </mxGeometry>
        </mxCell>
        <mxCell id="NpJzlHnRSFM5wKyrmZmd-32" value="yes&lt;div&gt;has collision&lt;/div&gt;" style="edgeLabel;html=1;align=center;verticalAlign=middle;resizable=0;points=[];" parent="NpJzlHnRSFM5wKyrmZmd-31" connectable="0" vertex="1">
          <mxGeometry x="-0.0771" y="1" relative="1" as="geometry">
            <mxPoint as="offset" />
          </mxGeometry>
        </mxCell>
        <mxCell id="NpJzlHnRSFM5wKyrmZmd-33" value="longURL +&lt;div&gt;predefined string&lt;/div&gt;" style="rounded=1;whiteSpace=wrap;html=1;strokeWidth=2;strokeColor=#3399FF;fillColor=none;fontColor=default;" parent="1" vertex="1">
          <mxGeometry x="1654" y="245" width="120" height="70" as="geometry" />
        </mxCell>
        <mxCell id="NpJzlHnRSFM5wKyrmZmd-34" value="" style="endArrow=classic;html=1;rounded=0;labelBackgroundColor=none;strokeColor=#3399FF;exitX=0;exitY=0.5;exitDx=0;exitDy=0;entryX=0.5;entryY=1;entryDx=0;entryDy=0;fontColor=default;edgeStyle=orthogonalEdgeStyle;" parent="1" source="NpJzlHnRSFM5wKyrmZmd-33" target="NpJzlHnRSFM5wKyrmZmd-22" edge="1">
          <mxGeometry width="50" height="50" relative="1" as="geometry">
            <mxPoint x="1580" y="130" as="sourcePoint" />
            <mxPoint x="1664" y="130" as="targetPoint" />
          </mxGeometry>
        </mxCell>
        <mxCell id="NpJzlHnRSFM5wKyrmZmd-35" value="" style="endArrow=classic;html=1;rounded=0;labelBackgroundColor=none;strokeColor=#3399FF;exitX=0.5;exitY=1;exitDx=0;exitDy=0;entryX=0.5;entryY=0;entryDx=0;entryDy=0;fontColor=default;" parent="1" target="NpJzlHnRSFM5wKyrmZmd-38" edge="1">
          <mxGeometry width="50" height="50" relative="1" as="geometry">
            <mxPoint x="1965.66" y="330" as="sourcePoint" />
            <mxPoint x="1965.66" y="405" as="targetPoint" />
          </mxGeometry>
        </mxCell>
        <mxCell id="NpJzlHnRSFM5wKyrmZmd-36" value="no" style="edgeLabel;html=1;align=center;verticalAlign=middle;resizable=0;points=[];" parent="NpJzlHnRSFM5wKyrmZmd-35" connectable="0" vertex="1">
          <mxGeometry x="-0.0317" y="1" relative="1" as="geometry">
            <mxPoint as="offset" />
          </mxGeometry>
        </mxCell>
        <mxCell id="NpJzlHnRSFM5wKyrmZmd-37" value="" style="edgeStyle=orthogonalEdgeStyle;rounded=0;orthogonalLoop=1;jettySize=auto;html=1;strokeColor=#3399FF;" parent="1" source="NpJzlHnRSFM5wKyrmZmd-38" target="NpJzlHnRSFM5wKyrmZmd-39" edge="1">
          <mxGeometry relative="1" as="geometry" />
        </mxCell>
        <mxCell id="NpJzlHnRSFM5wKyrmZmd-38" value="hash function" style="rounded=1;whiteSpace=wrap;html=1;strokeWidth=2;strokeColor=#3399FF;fillColor=none;fontColor=default;" parent="1" vertex="1">
          <mxGeometry x="1906" y="410" width="120" height="70" as="geometry" />
        </mxCell>
        <mxCell id="NpJzlHnRSFM5wKyrmZmd-39" value="&lt;font style=&quot;font-size: 16px;&quot;&gt;end&lt;/font&gt;" style="ellipse;whiteSpace=wrap;html=1;aspect=fixed;fillColor=none;strokeColor=#009900;strokeWidth=2;fontSize=16;fontColor=default;" parent="1" vertex="1">
          <mxGeometry x="1926" y="520" width="80" height="80" as="geometry" />
        </mxCell>
        <mxCell id="NpJzlHnRSFM5wKyrmZmd-40" value="" style="edgeStyle=orthogonalEdgeStyle;shape=connector;rounded=0;orthogonalLoop=1;jettySize=auto;html=1;strokeColor=#3399FF;align=center;verticalAlign=middle;fontFamily=Helvetica;fontSize=11;fontColor=default;labelBackgroundColor=default;endArrow=classic;" parent="1" source="NpJzlHnRSFM5wKyrmZmd-41" target="NpJzlHnRSFM5wKyrmZmd-45" edge="1">
          <mxGeometry relative="1" as="geometry" />
        </mxCell>
        <mxCell id="NpJzlHnRSFM5wKyrmZmd-41" value="1. input: longURL" style="rounded=1;whiteSpace=wrap;html=1;strokeWidth=2;strokeColor=#3399FF;fillColor=none;fontColor=default;" parent="1" vertex="1">
          <mxGeometry x="2330" y="80" width="140" height="80" as="geometry" />
        </mxCell>
        <mxCell id="NpJzlHnRSFM5wKyrmZmd-42" value="" style="edgeStyle=orthogonalEdgeStyle;shape=connector;rounded=0;orthogonalLoop=1;jettySize=auto;html=1;strokeColor=#3399FF;align=center;verticalAlign=middle;fontFamily=Helvetica;fontSize=11;fontColor=default;labelBackgroundColor=default;endArrow=classic;" parent="1" source="NpJzlHnRSFM5wKyrmZmd-45" target="NpJzlHnRSFM5wKyrmZmd-46" edge="1">
          <mxGeometry relative="1" as="geometry" />
        </mxCell>
        <mxCell id="NpJzlHnRSFM5wKyrmZmd-43" value="yes" style="edgeLabel;html=1;align=center;verticalAlign=middle;resizable=0;points=[];fontFamily=Helvetica;fontSize=11;fontColor=default;labelBackgroundColor=default;" parent="NpJzlHnRSFM5wKyrmZmd-42" connectable="0" vertex="1">
          <mxGeometry x="-0.3095" y="-2" relative="1" as="geometry">
            <mxPoint as="offset" />
          </mxGeometry>
        </mxCell>
        <mxCell id="NpJzlHnRSFM5wKyrmZmd-44" value="" style="edgeStyle=orthogonalEdgeStyle;shape=connector;rounded=0;orthogonalLoop=1;jettySize=auto;html=1;strokeColor=#3399FF;align=center;verticalAlign=middle;fontFamily=Helvetica;fontSize=11;fontColor=default;labelBackgroundColor=default;endArrow=classic;" parent="1" source="NpJzlHnRSFM5wKyrmZmd-45" target="NpJzlHnRSFM5wKyrmZmd-48" edge="1">
          <mxGeometry relative="1" as="geometry" />
        </mxCell>
        <mxCell id="NpJzlHnRSFM5wKyrmZmd-45" value="2. longURL in DB?" style="rhombus;whiteSpace=wrap;html=1;labelBackgroundColor=none;fillColor=none;strokeColor=#3399FF;fontColor=default;" parent="1" vertex="1">
          <mxGeometry x="2570" y="80" width="140" height="80" as="geometry" />
        </mxCell>
        <mxCell id="NpJzlHnRSFM5wKyrmZmd-46" value="3. return shortURL" style="rounded=1;whiteSpace=wrap;html=1;strokeWidth=2;strokeColor=#3399FF;fillColor=none;fontColor=default;" parent="1" vertex="1">
          <mxGeometry x="2780" y="80" width="140" height="80" as="geometry" />
        </mxCell>
        <mxCell id="NpJzlHnRSFM5wKyrmZmd-47" value="" style="edgeStyle=orthogonalEdgeStyle;shape=connector;rounded=0;orthogonalLoop=1;jettySize=auto;html=1;strokeColor=#3399FF;align=center;verticalAlign=middle;fontFamily=Helvetica;fontSize=11;fontColor=default;labelBackgroundColor=default;endArrow=classic;" parent="1" source="NpJzlHnRSFM5wKyrmZmd-48" target="NpJzlHnRSFM5wKyrmZmd-50" edge="1">
          <mxGeometry relative="1" as="geometry" />
        </mxCell>
        <mxCell id="NpJzlHnRSFM5wKyrmZmd-48" value="4. generate new ID" style="rounded=1;whiteSpace=wrap;html=1;strokeWidth=2;strokeColor=#3399FF;fillColor=none;fontColor=default;" parent="1" vertex="1">
          <mxGeometry x="2570" y="220" width="140" height="80" as="geometry" />
        </mxCell>
        <mxCell id="NpJzlHnRSFM5wKyrmZmd-49" value="" style="edgeStyle=orthogonalEdgeStyle;shape=connector;rounded=0;orthogonalLoop=1;jettySize=auto;html=1;strokeColor=#3399FF;align=center;verticalAlign=middle;fontFamily=Helvetica;fontSize=11;fontColor=default;labelBackgroundColor=default;endArrow=classic;" parent="1" source="NpJzlHnRSFM5wKyrmZmd-50" target="NpJzlHnRSFM5wKyrmZmd-51" edge="1">
          <mxGeometry relative="1" as="geometry" />
        </mxCell>
        <mxCell id="NpJzlHnRSFM5wKyrmZmd-50" value="5. convert ID to shortURL" style="rounded=1;whiteSpace=wrap;html=1;strokeWidth=2;strokeColor=#3399FF;fillColor=none;fontColor=default;" parent="1" vertex="1">
          <mxGeometry x="2570" y="355" width="140" height="80" as="geometry" />
        </mxCell>
        <mxCell id="NpJzlHnRSFM5wKyrmZmd-51" value="6. save ID, shortURL, longURL in DB" style="rounded=1;whiteSpace=wrap;html=1;strokeWidth=2;strokeColor=#3399FF;fillColor=none;fontColor=default;" parent="1" vertex="1">
          <mxGeometry x="2570" y="500" width="140" height="80" as="geometry" />
        </mxCell>
        <mxCell id="NpJzlHnRSFM5wKyrmZmd-52" value="" style="rounded=1;whiteSpace=wrap;html=1;strokeWidth=2;strokeColor=#3399FF;fillColor=none;fontColor=default;" parent="1" vertex="1">
          <mxGeometry x="3180" y="80" width="180" height="80" as="geometry" />
        </mxCell>
        <mxCell id="NpJzlHnRSFM5wKyrmZmd-53" value="" style="verticalLabelPosition=bottom;html=1;verticalAlign=top;align=center;strokeColor=none;fillColor=#000000;shape=mxgraph.azure.mobile;pointerEvents=1;fontColor=default;" parent="1" vertex="1">
          <mxGeometry x="3302.5" y="90" width="35" height="50" as="geometry" />
        </mxCell>
        <mxCell id="NpJzlHnRSFM5wKyrmZmd-54" value="" style="verticalLabelPosition=bottom;html=1;verticalAlign=top;align=center;strokeColor=none;fillColor=#000000;shape=mxgraph.azure.laptop;pointerEvents=1;fontFamily=Helvetica;fontSize=11;fontColor=default;labelBackgroundColor=default;fillStyle=auto;" parent="1" vertex="1">
          <mxGeometry x="3230" y="95" width="60" height="35" as="geometry" />
        </mxCell>
        <mxCell id="NpJzlHnRSFM5wKyrmZmd-55" value="User" style="text;html=1;align=center;verticalAlign=middle;resizable=0;points=[];autosize=1;strokeColor=none;fillColor=none;fontFamily=Helvetica;fontSize=11;fontColor=default;labelBackgroundColor=default;" parent="1" vertex="1">
          <mxGeometry x="3180" y="90" width="50" height="30" as="geometry" />
        </mxCell>
        <mxCell id="NpJzlHnRSFM5wKyrmZmd-56" value="2" style="edgeStyle=orthogonalEdgeStyle;shape=connector;rounded=0;orthogonalLoop=1;jettySize=auto;html=1;strokeColor=#3399FF;align=center;verticalAlign=bottom;fontFamily=Helvetica;fontSize=12;fontColor=default;labelBackgroundColor=default;endArrow=classic;labelBorderColor=none;" parent="1" source="NpJzlHnRSFM5wKyrmZmd-57" target="NpJzlHnRSFM5wKyrmZmd-4" edge="1">
          <mxGeometry relative="1" as="geometry" />
        </mxCell>
        <mxCell id="NpJzlHnRSFM5wKyrmZmd-57" value="&lt;font style=&quot;font-size: 12px;&quot;&gt;Load balancer&lt;/font&gt;" style="verticalLabelPosition=bottom;html=1;verticalAlign=top;align=center;strokeColor=none;fillColor=#00BEF2;shape=mxgraph.azure.azure_load_balancer;fontFamily=Helvetica;fontSize=12;fontColor=default;labelBackgroundColor=default;" parent="1" vertex="1">
          <mxGeometry x="3650" y="100" width="50" height="40" as="geometry" />
        </mxCell>
        <mxCell id="NpJzlHnRSFM5wKyrmZmd-58" value="1 GET shortURL" style="endArrow=classic;html=1;rounded=0;strokeColor=#3399FF;align=center;verticalAlign=bottom;fontFamily=Helvetica;fontSize=12;fontColor=default;labelBackgroundColor=default;entryX=0.11;entryY=0.01;entryDx=0;entryDy=0;entryPerimeter=0;exitX=1;exitY=0.25;exitDx=0;exitDy=0;" parent="1" source="NpJzlHnRSFM5wKyrmZmd-52" target="NpJzlHnRSFM5wKyrmZmd-57" edge="1">
          <mxGeometry width="50" height="50" relative="1" as="geometry">
            <mxPoint x="3450" y="250" as="sourcePoint" />
            <mxPoint x="3500" y="200" as="targetPoint" />
          </mxGeometry>
        </mxCell>
        <mxCell id="NpJzlHnRSFM5wKyrmZmd-59" value="5 return longURL" style="endArrow=classic;html=1;rounded=0;strokeColor=#3399FF;align=center;verticalAlign=top;fontFamily=Helvetica;fontSize=12;fontColor=default;labelBackgroundColor=default;entryX=1;entryY=0.75;entryDx=0;entryDy=0;exitX=0.02;exitY=0.96;exitDx=0;exitDy=0;exitPerimeter=0;" parent="1" source="NpJzlHnRSFM5wKyrmZmd-57" target="NpJzlHnRSFM5wKyrmZmd-52" edge="1">
          <mxGeometry width="50" height="50" relative="1" as="geometry">
            <mxPoint x="3370" y="110" as="sourcePoint" />
            <mxPoint x="3666" y="110" as="targetPoint" />
          </mxGeometry>
        </mxCell>
        <mxCell id="NpJzlHnRSFM5wKyrmZmd-60" value="Web servers" style="sketch=0;pointerEvents=1;shadow=0;dashed=0;html=1;strokeColor=none;fillColor=#505050;labelPosition=center;verticalLabelPosition=bottom;verticalAlign=top;outlineConnect=0;align=center;shape=mxgraph.office.servers.server_farm;fillColor=#2072B8;fontFamily=Helvetica;fontSize=11;fontColor=default;labelBackgroundColor=default;" parent="1" vertex="1">
          <mxGeometry x="3830" y="91" width="56" height="49" as="geometry" />
        </mxCell>
        <mxCell id="NpJzlHnRSFM5wKyrmZmd-61" value="Database" style="sketch=0;shadow=0;dashed=0;html=1;strokeColor=none;fillColor=#505050;labelPosition=center;verticalLabelPosition=bottom;verticalAlign=top;outlineConnect=0;align=center;shape=mxgraph.office.databases.database_availability_group;fontFamily=Helvetica;fontSize=11;fontColor=default;labelBackgroundColor=default;" parent="1" vertex="1">
          <mxGeometry x="3910" y="280" width="88" height="80" as="geometry" />
        </mxCell>
        <mxCell id="NpJzlHnRSFM5wKyrmZmd-62" value="" style="outlineConnect=0;dashed=0;verticalLabelPosition=bottom;verticalAlign=top;align=center;html=1;shape=mxgraph.aws3.cache_node;fillColor=#2E73B8;gradientColor=none;fontFamily=Helvetica;fontSize=11;fontColor=default;labelBackgroundColor=default;" parent="1" vertex="1">
          <mxGeometry x="3700" y="280" width="60" height="63" as="geometry" />
        </mxCell>
        <mxCell id="NpJzlHnRSFM5wKyrmZmd-63" value="" style="outlineConnect=0;dashed=0;verticalLabelPosition=bottom;verticalAlign=top;align=center;html=1;shape=mxgraph.aws3.cache_node;fillColor=#2E73B8;gradientColor=none;fontFamily=Helvetica;fontSize=11;fontColor=default;labelBackgroundColor=default;" parent="1" vertex="1">
          <mxGeometry x="3730" y="298.5" width="60" height="63" as="geometry" />
        </mxCell>
        <mxCell id="NpJzlHnRSFM5wKyrmZmd-64" value="" style="outlineConnect=0;dashed=0;verticalLabelPosition=bottom;verticalAlign=top;align=center;html=1;shape=mxgraph.aws3.cache_node;fillColor=#2E73B8;gradientColor=none;fontFamily=Helvetica;fontSize=11;fontColor=default;labelBackgroundColor=default;" parent="1" vertex="1">
          <mxGeometry x="3760" y="315" width="60" height="63" as="geometry" />
        </mxCell>
        <mxCell id="NpJzlHnRSFM5wKyrmZmd-65" value="Cache" style="rounded=1;whiteSpace=wrap;html=1;strokeWidth=2;strokeColor=#3399FF;fillColor=none;fontColor=default;verticalAlign=bottom;" parent="1" vertex="1">
          <mxGeometry x="3690" y="270" width="138" height="130" as="geometry" />
        </mxCell>
        <mxCell id="2" value="Text" style="text;strokeColor=none;align=center;fillColor=none;html=1;verticalAlign=middle;whiteSpace=wrap;rounded=0;" vertex="1" parent="1">
          <mxGeometry x="370" y="380" width="60" height="30" as="geometry" />
        </mxCell>
      </root>
    </mxGraphModel>
  </diagram>
</mxfile>
